PathFileType	4	(X/Y/Z)	C:\Users\Biomechanik\SynologyDrive\AlexP\Athlete_03\Athlete_3_25_03_31\Walking_01\marker_experimental.trc
DataRate	CameraRate	NumFrames	NumMarkers	Units	OrigDataRate	OrigDataStartFrame	OrigNumFrames
200.000000	200.000000	4	53	mm	200.000000	179	239
Frame#	Time	GLAB			RFHD			LFHD			C7			T6			SPINMOL			SPINM2			SPINM3			T12			BELTOL			BELT2			BELT3			SACROL			SACR2			SACR3			LTHOL			LTH2			LTH3			LSHAOL			LSHA2			LSHA3			LHEE			LTOE			LM5			RTHOL			RTH2			RTH3			RSHAOL			RSHA2			RSHA3			RHEE			RTOE			RM5			STRN			XIPH			LACR			LUAOL			LUA2			LUA3			LLAOL			LLA2			LLA3			LWRR			LWRU			RACR			RUAOL			RUA2			RUA3			RLAOL			RLA2			RLA3			RWRR			RWRU			
		X1	Y1	Z1	X2	Y2	Z2	X3	Y3	Z3	X4	Y4	Z4	X5	Y5	Z5	X6	Y6	Z6	X7	Y7	Z7	X8	Y8	Z8	X9	Y9	Z9	X10	Y10	Z10	X11	Y11	Z11	X12	Y12	Z12	X13	Y13	Z13	X14	Y14	Z14	X15	Y15	Z15	X16	Y16	Z16	X17	Y17	Z17	X18	Y18	Z18	X19	Y19	Z19	X20	Y20	Z20	X21	Y21	Z21	X22	Y22	Z22	X23	Y23	Z23	X24	Y24	Z24	X25	Y25	Z25	X26	Y26	Z26	X27	Y27	Z27	X28	Y28	Z28	X29	Y29	Z29	X30	Y30	Z30	X31	Y31	Z31	X32	Y32	Z32	X33	Y33	Z33	X34	Y34	Z34	X35	Y35	Z35	X36	Y36	Z36	X37	Y37	Z37	X38	Y38	Z38	X39	Y39	Z39	X40	Y40	Z40	X41	Y41	Z41	X42	Y42	Z42	X43	Y43	Z43	X44	Y44	Z44	X45	Y45	Z45	X46	Y46	Z46	X47	Y47	Z47	X48	Y48	Z48	X49	Y49	Z49	X50	Y50	Z50	X51	Y51	Z51	X52	Y52	Z52	X53	Y53	Z53	

180	0.895	694.7680664062499	1610.408325195312	173.1384124755861	642.7233276367186	1637.49267578125	235.9885406494142	653.2373657226561	1630.919555664062	97.87738037109386	470.1651306152342	1448.25927734375	164.510955810547	412.0191040039061	1278.988403320312	162.357879638672	404.6262817382812	1238.331298828125	141.6948699951173	397.9926147460936	1231.728515625	191.233856201172	409.5103454589843	1174.557739257812	158.9800872802735	434.452911376953	1109.449951171875	163.510467529297	397.1370239257812	1075.390014648438	149.3319549560548	395.4174194335936	1074.446899414062	199.8392486572266	390.9012145996093	1014.014587402344	171.9268493652345	406.9913635253905	962.6609497070312	157.1734619140626	411.0876464843749	962.4053955078125	208.4894561767579	394.7048339843749	903.035400390625	183.8771362304688	498.8224182128906	678.840576171875	6.701439857483002	449.5013122558593	625.4356689453125	38.66927337646493	496.9611816406249	619.6217651367188	23.70946502685556	479.32275390625	321.5379028320313	33.49378204345712	429.1753845214844	261.3165893554688	47.85190582275398	479.3131713867188	260.1716613769532	43.53146743774423	406.3572082519531	72.03139495849612	143.1376953125001	623.9256591796875	44.67284774780277	129.1875610351564	570.261474609375	31.81051635742191	30.51652908325206	570.8167114257811	689.5750732421875	387.2430419921876	643.5033569335936	660.98486328125	399.528778076172	602.7597045898436	637.5792846679688	383.8419189453126	568.4878540039061	406.8520507812501	371.6366577148439	565.4505615234374	328.9309692382813	362.6865844726564	531.7944946289061	362.1283874511719	348.389373779297	415.2954101562499	197.7821350097657	213.2510833740235	586.1871337890625	78.35237121582036	255.3777008056642	516.9524536132811	88.00778961181643	341.4927368164064	639.7985229492186	1348.236938476562	172.0891876220704	655.8549804687499	1203.914916992188	175.3766937255861	552.1866455078124	1408.747680664062	-6.788673400878805	556.7692260742186	1254.086303710938	-108.8101119995116	548.4998779296874	1191.677978515625	-128.4317016601561	593.0181274414061	1199.171508789062	-104.1166839599608	615.5099487304686	995.3653564453125	-151.6516113281249	593.1162109375	921.5530395507812	-135.048370361328	638.3782348632811	938.4395141601562	-147.7595977783202	685.4066162109375	846.025634765625	-143.3788299560546	725.1493530273438	863.938720703125	-76.65773773193347	549.9794311523435	1406.643188476562	338.1893920898439	524.3104858398435	1260.965698242188	439.891326904297	545.8068847656248	1198.927490234375	449.9734497070314	495.8618164062499	1205.109619140625	461.0783081054689	525.283020019531	986.3272705078125	500.417205810547	579.711975097656	936.012939453125	530.2304687500001	537.6304321289061	924.6834106445312	506.3822631835939	576.8683471679686	844.8947143554688	524.4950561523439	612.3884277343749	826.188232421875	453.5410156250001	
181	0.9	701.1621704101561	1610.37353515625	173.3466033935548	649.0896606445311	1637.353271484375	236.2188873291017	659.6793823242186	1631.047729492188	98.09877777099622	476.5328674316405	1448.328247070312	164.3394622802735	418.3047485351561	1279.075805664062	162.0854492187501	410.8760986328124	1238.418823242188	141.4261474609376	404.2870483398436	1231.817016601562	190.9558105468751	415.7532348632811	1174.651611328125	158.7332153320313	440.6707763671874	1109.5390625	163.3697509765626	403.1184387207031	1075.345703125	149.508758544922	401.5592651367186	1074.44482421875	200.0145416259766	396.9776000976561	1013.990234375	172.1666107177735	412.979278564453	962.7719116210938	157.4446105957032	417.2206726074218	962.5401000976562	208.7959594726563	400.9174804687499	903.1060180664062	184.166961669922	502.5731506347656	679.3135986328125	6.495622158050629	452.8231506347656	626.35986328125	38.59902572631844	500.2053222656249	620.11376953125	23.56610107421884	480.43896484375	321.9654235839844	33.55665588378915	430.048583984375	261.9757995605469	47.99541854858406	480.1854248046875	260.5957031250001	43.60220718383798	406.5710144042969	72.56780242919925	143.2917785644532	624.0604858398438	44.63909149169925	129.1712493896486	570.3110961914062	31.80725669860843	30.5401897430421	579.5435180664061	690.0147705078125	387.4317016601564	652.6749267578124	662.0278930664062	398.5505981445314	611.7539672851561	638.339599609375	383.6025695800782	580.4766235351561	404.0860595703126	370.9490051269532	579.8010864257811	326.0979919433594	361.7407531738282	544.9666137695311	358.3265991210938	347.8880920410157	432.7096557617187	190.3676452636719	213.1350860595704	607.7740478515625	77.08025360107426	255.0420684814454	538.4384765624999	84.34087371826175	341.3181762695314	646.1273193359374	1348.251831054688	171.9405670166017	661.9419555664061	1203.903686523438	174.9969787597657	558.5669555664061	1409.015258789062	-6.907098770141499	563.7551879882811	1254.668701171875	-109.1911239624022	555.7534179687499	1192.269653320312	-128.9458160400389	600.2333374023436	1199.916259765625	-104.5772094726561	624.6601562499999	996.4205932617188	-152.1582183837889	603.2653198242188	922.3477172851562	-135.4399108886718	648.3230590820311	939.8442993164062	-148.0715789794921	696.6536254882812	848.0983276367188	-143.2760467529295	736.0611572265625	866.8369750976562	-76.60826873779283	556.2048339843748	1406.529296875	338.069305419922	529.6110839843748	1260.895263671875	439.6854858398439	550.7511596679685	1198.76318359375	449.8665466308595	500.7669982910155	1205.16357421875	460.6434631347657	528.5057373046873	986.4100952148438	500.2741088867189	582.1297607421873	935.6765747070312	530.7810668945314	540.3427734374999	924.6447143554688	506.4443969726564	578.5714721679686	844.5407104492188	525.1036987304689	614.7631225585936	825.4317626953125	454.6117248535157	
182	0.905	707.5656738281249	1610.280639648438	173.5704650878908	655.4658813476561	1637.157104492188	236.4642486572267	666.1303100585936	1631.114624023438	98.33596801757825	482.9076843261717	1448.342163085938	164.1847686767579	424.5885620117186	1279.112548828125	161.8525848388673	417.1198120117187	1238.454467773438	141.2015533447266	410.5745544433593	1231.859741210938	190.7241973876954	421.9874877929686	1174.69482421875	158.5348358154298	446.8775024414061	1109.577758789062	163.2843017578126	409.0952758789062	1075.257446289062	149.7486419677735	407.702667236328	1074.390869140625	200.2520294189454	403.0449829101561	1013.918151855469	172.4589843750001	418.9537963867186	962.8438110351562	157.7674713134766	423.3345336914061	962.6163330078125	209.1558990478516	407.128936767578	903.1235961914062	184.4825134277345	506.3848266601562	679.755126953125	6.281817913055513	456.1981201171874	627.2413940429688	38.47709274292001	503.5102844238281	620.578125	23.40520858764658	481.6022644042969	322.3977661132813	33.6134681701661	430.9598388671875	262.6484069824219	48.13139343261727	481.0937805175781	261.0249633789063	43.66587448120126	406.7837524414062	73.13388824462893	143.4399414062501	624.1975708007812	44.6059494018555	129.1489410400392	570.3634643554688	31.80436897277836	30.56389045715342	588.1657714843749	690.3695678710938	387.5721130371095	661.7185668945311	662.9370727539062	397.5649719238282	620.6237182617186	638.9945678710938	383.3029785156251	592.3948364257811	401.2435607910157	370.2313537597657	594.0966796874999	323.2492065429688	360.8608398437501	558.1262207031249	354.4477844238282	347.3739013671876	450.3649902343749	182.9008026123047	213.1242218017579	629.364013671875	75.87820434570317	254.7975006103517	560.0056762695311	80.75229644775393	341.2495422363282	652.4625244140624	1348.199584960938	171.8108673095704	668.0083618164061	1203.822021484375	174.6373748779298	564.9562377929686	1409.212158203125	-7.004754543304339	570.7366333007811	1255.18994140625	-109.5493392944335	562.9978027343749	1192.801513671875	-129.4275360107421	607.4458007812499	1200.601928710938	-105.019691467285	633.7938232421874	997.4365844726562	-152.6452331542968	613.39599609375	923.1156005859375	-135.8132781982421	658.2411499023436	941.2186889648438	-148.3631439208983	707.8583984375	850.15380859375	-143.1489410400389	746.9147338867188	869.7130126953125	-76.53524780273423	562.429504394531	1406.359619140625	337.9689025878907	534.918518066406	1260.778442382812	439.4948730468751	555.7073974609373	1198.557250976562	449.7791442871095	505.6877441406249	1205.171142578125	460.2296142578126	531.7743530273435	986.4605712890625	500.1439208984376	584.6010131835935	935.325927734375	531.3270874023439	543.1238403320311	924.5744018554688	506.5115966796876	580.3350219726561	844.1691284179688	525.7031860351564	617.2283325195311	824.6824951171875	455.6881103515626	
183	0.91	713.9794311523436	1610.129150390625	173.8096923828126	661.8531494140624	1636.903930664062	236.7242736816407	672.5906372070311	1631.11962890625	98.58876800537122	489.2891845703123	1448.30078125	164.047821044922	430.8714294433593	1279.09765625	161.6608886718751	423.3585815429687	1238.4375	141.0222625732423	416.8565979003905	1231.85546875	190.5400848388673	428.2146606445311	1174.686401367188	158.3855590820313	453.074493408203	1109.5654296875	163.2531738281251	415.0729980468749	1075.12890625	150.0461730957032	413.8508300781249	1074.28857421875	200.5465545654298	409.1061706542968	1013.802429199219	172.7979125976563	424.9196777343749	962.8760375976562	158.1370544433595	429.4363403320311	962.6338500976562	209.5622711181641	413.3336486816405	903.0904541015625	184.8206787109376	510.2545166015624	680.1629028320312	6.061925411224459	459.6255187988281	628.078857421875	38.31058883667001	506.8749694824218	621.0125122070312	23.23008346557626	482.809814453125	322.8334045410157	33.66467666625985	431.9060668945312	263.3332824707031	48.26115417480477	482.0350952148438	261.4580383300782	43.72262954711923	406.9961242675781	73.72578430175784	143.5828552246095	624.3352661132812	44.57339859008793	129.1205444335939	570.4166259765625	31.80218696594242	30.58751106262217	596.6762084960936	690.6329956054688	387.6543579101564	670.6267089843749	663.7025146484375	396.5720214843751	629.3635864257811	639.5358276367188	382.9349060058595	604.2348022460936	398.3364562988282	369.4818725585939	608.3245849609374	320.3983459472657	360.0477294921876	571.2660522460936	350.5086059570313	346.8445434570314	468.2586669921874	175.4134063720703	213.2130737304688	650.9459228515625	74.7620010375977	254.6515960693361	581.6393432617186	77.26818084716801	341.2908935546876	658.8042602539061	1348.080932617188	171.7005004882814	674.0596923828124	1203.671875	174.2995605468751	571.3529663085936	1409.339111328125	-7.080855846404924	577.7113037109374	1255.649780273438	-109.8842544555663	570.2330932617186	1193.27294921875	-129.8750610351561	614.6554565429686	1201.229125976562	-105.4427795410155	642.9105834960936	998.4134521484375	-153.1107482910155	623.5062255859375	923.8567504882812	-136.168243408203	668.1311035156249	942.56201171875	-148.6324462890624	719.0171508789062	852.1910400390625	-142.9987182617186	757.7061157226562	872.563232421875	-76.43788909912095	568.6544189453123	1406.13623046875	337.8888549804689	540.234191894531	1260.616821289062	439.3204345703126	560.678039550781	1198.309814453125	449.7113037109376	510.6259765624999	1205.133422851562	459.8369140625001	535.0939941406248	986.4796752929688	500.0276184082032	587.1335449218748	934.9613037109375	531.8658447265626	545.9785766601561	924.4732055664062	506.5841369628907	582.1661376953124	843.7810668945312	526.2928466796876	619.7835083007811	823.9387817382812	456.7658996582032	
